<svg xmlns="http://www.w3.org/2000/svg" xmlns:xlink="http://www.w3.org/1999/xlink" width="1080" zoomAndPan="magnify" viewBox="0 0 810 809.999993" height="1080" preserveAspectRatio="xMidYMid meet" version="1.0"><path fill="#535c49" d="M 252.566406 87.601562 C 267.453125 87.230469 282.417969 87.542969 297.3125 87.542969 L 383.265625 87.546875 L 436.210938 87.742188 C 460.03125 87.761719 483.804688 87.113281 507.210938 92.203125 C 531.007812 97.582031 553.675781 107.09375 574.179688 120.3125 C 578.855469 123.390625 583.3125 126.871094 587.757812 130.28125 C 593.546875 134.722656 598.6875 139.832031 603.832031 144.984375 C 633.054688 173.859375 651.679688 211.753906 656.695312 252.527344 C 657.003906 254.996094 657.324219 259.292969 655.5 261.207031 C 654.671875 262.070312 653.652344 262.199219 652.511719 262.261719 C 648.558594 262.472656 643.78125 260.207031 640.113281 258.886719 C 629.851562 255.1875 614.457031 246.753906 605.496094 240.449219 C 593.46875 231.984375 565.421875 203.636719 551.617188 204.816406 C 543.984375 205.46875 534 214.578125 526.9375 218.289062 C 520.925781 221.453125 515.199219 222.851562 508.707031 219.964844 C 504.429688 218.058594 501.066406 214.539062 497.617188 211.464844 C 484.390625 199.683594 467.328125 180.46875 448.285156 180.972656 C 445.976562 181.035156 443.703125 181.464844 441.574219 182.378906 C 436.664062 184.492188 432.429688 188.011719 428.234375 191.238281 C 421.28125 196.59375 414.25 202.140625 407.800781 208.097656 C 403.121094 212.421875 398.773438 217.113281 393.992188 221.328125 C 387.546875 227.015625 380.0625 231.675781 374.140625 237.929688 C 375.121094 239.535156 376.246094 240.941406 377.828125 241.996094 C 379.738281 243.269531 381.878906 243.71875 384.152344 243.566406 C 394.363281 242.875 398.71875 230.601562 407.203125 229.316406 C 415.34375 228.078125 414.847656 236.46875 418.878906 238.972656 C 422.214844 241.050781 435.582031 230.117188 439.714844 228.84375 L 442.785156 227.910156 C 444.480469 228.503906 446.738281 229.308594 447.902344 230.746094 C 448.707031 231.742188 448.875 232.894531 448.699219 234.132812 C 448.328125 236.757812 446.769531 239.335938 445.628906 241.699219 C 443.53125 246.058594 438.332031 256.109375 438.21875 260.566406 C 438.171875 262.398438 439.15625 263.460938 440.335938 264.734375 C 444.625 265.320312 448.75 265.316406 453.039062 264.640625 C 464.128906 262.894531 484.742188 254.820312 495.386719 249.9375 C 502.96875 246.457031 514.152344 240.875 522.363281 239.539062 C 525.210938 239.078125 531.5625 238.359375 533.839844 240.386719 C 538.042969 244.113281 532.71875 253.34375 531.796875 257.542969 C 531.144531 260.503906 531.324219 263.582031 531.398438 266.59375 C 532.121094 267.589844 532.972656 268.558594 533.835938 269.4375 C 535.050781 270.671875 536.464844 271.753906 538.148438 272.234375 C 544.824219 274.132812 555.414062 273.507812 562.433594 273.554688 L 584.976562 273.777344 L 630.164062 273.953125 C 637.507812 274.050781 645.308594 273.625 652.5625 274.703125 C 654.292969 274.960938 655.4375 275.492188 656.929688 276.390625 C 659.84375 317.945312 643.011719 368.550781 616.296875 400.429688 C 592.992188 428.070312 562.695312 448.9375 528.5625 460.859375 C 523.28125 462.757812 517.25 465.832031 511.667969 466.28125 C 507.171875 466.644531 502.3125 466.75 497.859375 465.972656 C 485.261719 463.769531 470.171875 454.5 460.480469 446.25 C 452.890625 439.789062 445.777344 430.894531 445.128906 420.535156 C 444.183594 405.371094 465.253906 395.59375 476.480469 389.953125 C 482.636719 386.859375 488.976562 383.855469 494.953125 380.445312 C 498.398438 378.476562 508.195312 371.328125 510.683594 368.519531 C 518.714844 359.457031 520.351562 353.242188 519.539062 341.425781 C 518.621094 328.035156 498.628906 315.191406 487.664062 309.984375 C 482.96875 307.757812 477.929688 306.042969 473.066406 304.203125 C 466.066406 301.554688 458.988281 298.800781 451.835938 296.59375 C 441.253906 293.328125 430.480469 290.984375 419.726562 288.410156 C 408.023438 285.605469 396.03125 282.628906 384.109375 280.976562 C 381.496094 280.613281 378.84375 280.5625 376.226562 280.230469 C 372.667969 279.777344 369.148438 279.066406 365.574219 278.699219 C 362.328125 278.367188 359.058594 278.308594 355.8125 277.957031 C 352.871094 277.640625 349.960938 277.066406 347.019531 276.753906 C 338.460938 275.847656 329.484375 276.433594 321.347656 273.039062 C 305.28125 266.332031 297.832031 249.722656 285.117188 238.835938 C 281.867188 236.054688 278.484375 234.308594 274.054688 234.636719 C 271.167969 234.851562 268.289062 235.761719 265.683594 236.992188 C 261.042969 239.1875 256.679688 242.183594 252.363281 244.949219 C 239.898438 252.933594 228.183594 261.898438 215.5 269.566406 C 210.269531 272.730469 205.042969 276.421875 198.753906 276.847656 C 196.253906 277.015625 193.0625 276.722656 191.144531 274.902344 C 188.707031 272.582031 188.152344 268.683594 188.003906 265.488281 C 187.378906 252.128906 187.722656 238.570312 187.722656 225.1875 L 187.597656 166.972656 L 187.742188 127.773438 C 187.828125 120.996094 187.539062 113.804688 188.511719 107.089844 C 189.15625 102.644531 190.761719 98.296875 193.84375 94.945312 C 196.300781 92.277344 199.613281 90.1875 203.097656 89.1875 C 207.714844 87.863281 212.78125 88 217.546875 87.859375 C 229.214844 87.515625 240.90625 88.0625 252.566406 87.601562 Z M 252.566406 87.601562 " fill-opacity="1" fill-rule="nonzero"/><path fill="#535c49" d="M 441.230469 323.316406 C 444.5625 323.175781 448.148438 322.730469 451.023438 324.824219 C 452.832031 326.144531 453.839844 328.15625 454.085938 330.359375 C 454.914062 337.75 448.964844 343.382812 443.347656 347.113281 C 439.113281 349.925781 434.324219 351.414062 429.675781 353.375 C 426.597656 354.667969 423.621094 356.265625 420.480469 357.398438 C 413.039062 360.082031 405.230469 362.097656 397.640625 364.320312 C 390.082031 366.535156 382.609375 368.988281 375.089844 371.320312 C 371.136719 372.550781 366.828125 373.394531 362.96875 374.804688 C 361.40625 375.375 360.101562 376.546875 358.554688 377.191406 C 353.914062 379.121094 349.039062 380.488281 344.507812 382.710938 C 337.457031 386.175781 333.113281 389.335938 326.898438 393.964844 C 324.496094 395.757812 322.019531 397.4375 319.855469 399.523438 C 316.300781 402.949219 313.109375 406.988281 310.109375 410.910156 C 303.960938 418.945312 300.507812 428.300781 299.722656 438.335938 C 297.9375 461.105469 307.285156 478.148438 310.046875 499.683594 C 311.125 508.085938 311.125 516.671875 310.875 525.125 C 310.679688 531.886719 309.292969 538.574219 308.726562 545.308594 C 308.109375 552.59375 308.394531 560.417969 307.023438 567.578125 C 306.671875 569.417969 305.980469 571.191406 304.789062 572.65625 C 303.742188 573.941406 302.128906 575.085938 300.433594 575.234375 C 298.933594 575.363281 297.640625 574.542969 296.574219 573.574219 C 293.109375 570.40625 291.984375 565.625 291.230469 561.171875 C 290.351562 555.988281 290.472656 550.605469 290.355469 545.359375 L 289.957031 516.421875 C 289.859375 509.582031 289.957031 502.507812 288.925781 495.734375 C 287.183594 484.253906 283.6875 472.90625 281.167969 461.546875 C 280.21875 457.277344 279.050781 452.957031 278.761719 448.582031 C 273.5625 455.976562 271.242188 468.109375 269.15625 476.878906 C 266.773438 486.890625 266.683594 497.054688 266.734375 507.28125 C 266.800781 521.085938 268.28125 534.292969 272.726562 547.429688 C 277.828125 562.503906 286.144531 575.644531 293.644531 589.515625 C 301.71875 604.457031 308.285156 621.070312 310.089844 638.066406 C 311.199219 648.476562 310.945312 670.457031 304.066406 678.535156 C 303.132812 679.625 301.835938 680.613281 300.347656 680.6875 C 298.496094 680.777344 296.875 679.585938 295.597656 678.371094 C 294.742188 677.558594 293.890625 676.605469 293.558594 675.449219 C 292.082031 670.324219 293.148438 653.179688 293.074219 646.652344 C 292.875 629.542969 286.601562 612.96875 278.980469 597.902344 C 276.929688 593.847656 274.78125 589.175781 271.484375 586 C 271.378906 585.898438 271.273438 585.800781 271.171875 585.703125 C 270.808594 599.332031 284.613281 620.5 283.066406 628.472656 C 282.65625 630.59375 280.328125 631.859375 278.6875 632.992188 C 271.710938 630.765625 269.089844 625.558594 265.699219 619.601562 C 259.652344 609.179688 255.5 597.773438 253.441406 585.902344 C 252.015625 577.8125 251.699219 569.515625 250.96875 561.347656 C 250.210938 551.875 248.757812 542.472656 246.617188 533.210938 C 245.667969 529.132812 244.96875 525.328125 242.785156 521.6875 C 239.34375 530.664062 236.363281 541.035156 235.382812 550.621094 C 234.863281 555.699219 234.949219 560.84375 234.953125 565.945312 C 234.957031 574.457031 234.304688 583.925781 236.699219 592.171875 C 241.523438 608.808594 254.765625 622.527344 264.414062 636.660156 C 273.507812 649.976562 277.882812 664.890625 282.070312 680.261719 C 283.351562 684.949219 285.003906 689.820312 285.648438 694.636719 C 284.601562 697.335938 283.308594 700.351562 280.71875 701.902344 C 279.332031 702.734375 277.535156 703.023438 275.972656 702.570312 C 269.039062 700.558594 267.121094 686.746094 265.773438 680.898438 C 265.050781 677.773438 264.210938 674.671875 263.257812 671.609375 C 261.207031 665.035156 258.464844 657.964844 255.046875 652.003906 C 253.875 649.957031 251.597656 649.03125 250.773438 646.878906 C 251.773438 653.96875 253.777344 661.046875 254.4375 668.167969 C 255.054688 674.832031 255.339844 687.511719 253.648438 693.761719 C 253.074219 695.871094 252.035156 697.820312 250.609375 699.472656 C 248.996094 701.304688 246.800781 702.613281 244.308594 702.667969 C 243.015625 702.699219 241.808594 702.300781 240.914062 701.335938 C 237.71875 697.894531 239.429688 688.59375 239.667969 684.074219 C 240.402344 675.296875 239.921875 663.773438 235.105469 656.105469 C 233.867188 659.453125 232.976562 662.964844 231.890625 666.367188 C 230.714844 670.0625 229.328125 673.683594 228.171875 677.390625 C 226.136719 683.910156 224.625 692.34375 220.203125 697.757812 C 218.761719 699.519531 216.882812 700.796875 214.5625 700.964844 C 212.597656 701.113281 210.203125 700.609375 208.757812 699.1875 C 206.734375 697.199219 206.792969 693.597656 207.183594 690.988281 C 207.769531 687.101562 209.742188 683.789062 211.039062 680.136719 C 214.453125 670.488281 217.53125 660.425781 221.726562 651.082031 C 223.691406 646.710938 227.523438 643.015625 227.382812 637.976562 C 227.207031 631.863281 223.222656 623.167969 218.800781 618.960938 C 216.011719 621.585938 214.007812 624.894531 211.960938 628.101562 C 208.730469 633.152344 204.992188 641.140625 203.796875 646.980469 C 202.378906 653.902344 204.824219 674.570312 201.957031 678.488281 C 200.582031 680.367188 197.757812 681.542969 195.507812 681.804688 C 193.820312 682 192.171875 681.605469 190.875 680.46875 C 188.511719 678.398438 187.773438 674.996094 187.535156 671.996094 C 186.292969 656.277344 188.929688 638.375 196.21875 624.300781 C 201.222656 614.640625 208.117188 605.78125 214.925781 597.359375 C 217.550781 594.109375 216.589844 589.058594 216.191406 585.210938 C 216 583.335938 215.789062 578.605469 214.257812 577.363281 C 208.59375 579.414062 203.917969 588.472656 195.191406 591.453125 C 194.238281 591.175781 193.265625 590.894531 192.382812 590.4375 C 190.945312 589.683594 189.898438 588.355469 189.496094 586.785156 C 188.917969 584.425781 189.746094 581.84375 190.6875 579.691406 C 195.703125 568.25 204.675781 563.757812 210.613281 554.535156 C 211.664062 552.902344 212.410156 550.96875 213.191406 549.1875 C 217.359375 539.691406 220.480469 529.8125 223.816406 520.003906 C 233.363281 491.96875 241.636719 463.210938 255.320312 436.816406 C 260.847656 426.160156 267.53125 415.3125 274.875 405.800781 C 280.019531 399.140625 285.921875 393.039062 290.445312 385.933594 C 285.273438 386.835938 280.519531 388.988281 275.71875 391.011719 C 270.050781 393.40625 264.320312 395.742188 258.726562 398.3125 C 252.84375 401.019531 246.960938 404.132812 240.753906 406.042969 C 237.6875 406.984375 232.65625 408.105469 229.5625 406.945312 C 227.402344 406.136719 226.546875 403.53125 225.753906 401.578125 C 231.351562 390.683594 254.449219 378.117188 265.738281 373.949219 C 276.683594 369.90625 288.988281 367.371094 299.460938 362.453125 C 297.1875 361.558594 295.070312 360.90625 292.664062 360.46875 C 288.257812 359.671875 283.292969 358.445312 278.820312 358.941406 C 260.285156 361 240.367188 376.265625 225.984375 387.539062 C 222.214844 390.492188 218.339844 393.285156 214.824219 396.550781 C 211.859375 399.304688 208.953125 402.207031 206.164062 405.136719 C 203.78125 407.636719 201.582031 410.539062 198.691406 412.484375 C 196.519531 413.945312 193.539062 415.3125 190.863281 414.640625 C 189.613281 414.328125 188.4375 413.503906 187.796875 412.378906 C 186.898438 410.804688 187.113281 408.867188 187.546875 407.183594 C 191.167969 393.28125 226.113281 366.363281 238.890625 358.648438 C 238.480469 358.242188 238.085938 357.863281 237.605469 357.539062 C 235.1875 355.914062 232.269531 356.484375 229.523438 356.082031 C 226.851562 355.695312 224.320312 354.546875 221.613281 354.261719 C 211.777344 353.21875 205.539062 359.421875 196.898438 361.113281 C 194.910156 361.503906 192.9375 361.390625 191.246094 360.171875 C 189.640625 359.011719 188.125 356.609375 187.953125 354.621094 C 187.777344 352.621094 188.777344 350.734375 190.03125 349.246094 C 192.746094 346.015625 196.617188 344.132812 200.484375 342.652344 C 215.023438 337.070312 228.480469 338.609375 243.570312 340.269531 C 259.914062 342.070312 276.710938 340.273438 293.132812 340.96875 C 302.625 341.371094 311.980469 343.460938 321.359375 344.863281 C 338.703125 347.453125 355.121094 345.667969 372.128906 341.800781 C 382.125 339.53125 392.320312 337.410156 402.125 334.433594 C 414.609375 330.636719 428.382812 324.699219 441.230469 323.316406 Z M 441.230469 323.316406 " fill-opacity="1" fill-rule="nonzero"/><path fill="#535c49" d="M 359.554688 398.917969 C 361.925781 398.527344 365.816406 398.515625 368.066406 399.386719 C 371.035156 400.535156 372.28125 403.03125 373.5625 405.730469 C 373.410156 408.753906 372.753906 411.796875 372.363281 414.800781 C 371.671875 420.0625 371.5 426.292969 372.417969 431.546875 C 373.46875 437.558594 376.222656 443.308594 379.3125 448.515625 C 389.601562 465.871094 404.882812 478.460938 420.21875 491.160156 C 424.242188 494.492188 428.054688 498.1875 432.179688 501.382812 C 436.039062 504.367188 440.269531 506.863281 444.121094 509.859375 C 451.207031 515.367188 466.195312 527.925781 474.121094 530.59375 C 479.730469 532.480469 485.449219 531.664062 491.214844 532.199219 C 505.671875 533.542969 537.191406 537.289062 548.660156 545.261719 C 549.371094 547.351562 549.882812 549.359375 549.230469 551.550781 C 547.101562 558.726562 534.109375 554.890625 529.0625 554.023438 C 526.871094 553.644531 524.640625 553.535156 522.441406 553.199219 C 517.910156 552.503906 502.484375 549.304688 499.058594 550.984375 C 499.03125 551.371094 499.003906 551.390625 499.121094 551.828125 C 499.984375 555.015625 512.066406 564.679688 515.066406 566.835938 C 517.523438 568.597656 520.207031 569.96875 522.695312 571.675781 C 527.828125 571.933594 532.980469 571.652344 538.121094 571.925781 C 548.183594 572.464844 563.949219 575.511719 573.226562 579.421875 C 578.070312 581.464844 587.316406 585.296875 589.226562 590.492188 C 589.914062 592.351562 589.726562 594.390625 588.859375 596.160156 C 585.457031 603.09375 567.972656 594.179688 562.878906 592.421875 C 558.496094 590.910156 542.378906 586.449219 538.207031 587.738281 C 538.035156 588.347656 538.050781 588.382812 538.335938 588.921875 C 540.035156 592.171875 544.082031 595.257812 546.8125 597.675781 C 560.570312 609.875 566.3125 609.523438 583.585938 612.992188 C 586.746094 613.625 590.074219 614.042969 593.136719 615.039062 C 600.921875 617.5625 620.957031 625.796875 624.558594 633.242188 C 625.589844 635.335938 625.683594 637.773438 624.820312 639.941406 C 623.964844 642.074219 622.585938 642.808594 620.558594 643.6875 C 608.460938 642.464844 590.78125 629.390625 578.550781 625.578125 C 576.472656 624.933594 569.761719 622.472656 567.855469 623.464844 L 567.714844 624.195312 C 568.597656 626.589844 570.824219 628.824219 572.476562 630.761719 C 581.1875 640.964844 595.347656 646.597656 607.921875 650.445312 C 615.929688 652.890625 623.835938 654.8125 631.234375 658.863281 C 633.414062 660.058594 635.738281 661.210938 637.609375 662.863281 C 643.152344 667.753906 660.84375 687.792969 660.96875 694.660156 C 660.996094 696.199219 660.175781 697.644531 659.128906 698.71875 C 657.488281 700.40625 654.996094 701.59375 652.617188 701.507812 C 646.996094 701.3125 642.015625 692.015625 639.074219 687.933594 C 637.628906 685.902344 636.03125 683.992188 634.289062 682.210938 C 630.816406 678.652344 626.726562 675.398438 622.417969 672.90625 C 616.660156 669.574219 610.542969 667.824219 604.441406 665.359375 C 599.347656 663.300781 589.550781 658.101562 584.226562 658.207031 C 583.417969 658.226562 583.320312 658.296875 582.78125 658.835938 C 582.351562 661.238281 583.984375 664.550781 584.941406 666.742188 C 588.90625 675.824219 597.746094 683.679688 607.027344 686.972656 C 610.554688 688.222656 614.386719 688.746094 617.828125 690.191406 C 620.863281 691.460938 622.957031 693.507812 624.089844 696.613281 C 624.417969 697.515625 624.511719 698.332031 624.046875 699.230469 C 623.03125 701.210938 620.230469 702.539062 618.234375 703.207031 C 610.691406 705.726562 596.691406 700.527344 589.816406 697.074219 C 575.835938 690.046875 569.75 672.425781 565.171875 658.648438 C 562 649.101562 556.414062 637.039062 549.777344 629.519531 C 546.621094 625.941406 542.914062 622.984375 539.8125 619.304688 C 536.695312 615.601562 530.78125 607.96875 526.609375 606.058594 C 526.003906 605.78125 525.960938 605.742188 525.328125 605.996094 C 523.71875 611.539062 539.964844 632.832031 541.484375 639.800781 C 541.984375 642.101562 541.917969 644.929688 540.496094 646.917969 C 539.839844 647.839844 538.921875 648.429688 537.804688 648.617188 C 535.964844 648.925781 534.152344 647.894531 532.699219 646.878906 C 525.5625 641.898438 514.195312 623.234375 511.65625 614.832031 C 509.714844 608.402344 509.039062 601.59375 507.90625 595.007812 C 506.621094 587.539062 500.101562 582.582031 494.257812 578.609375 C 493.148438 577.855469 492.476562 577.523438 491.140625 577.78125 C 490.925781 578.140625 490.679688 578.515625 490.511719 578.90625 C 488.8125 582.816406 497.824219 598.769531 499.441406 603.746094 L 499.605469 604.253906 C 499.207031 605.203125 498.828125 606.214844 498.246094 607.066406 C 497.421875 608.265625 496.078125 609.136719 494.628906 609.332031 C 492.464844 609.625 490.25 608.335938 488.664062 607.003906 C 486.25 604.976562 484.191406 602.332031 482.375 599.773438 C 474.609375 588.832031 476.898438 580.855469 475.734375 568.367188 C 475.125 561.785156 468.035156 555.871094 463.214844 551.90625 C 455.375 545.457031 447.371094 539.292969 439.382812 533.035156 C 435.417969 529.929688 431.496094 526.261719 427.234375 523.617188 C 426.445312 523.125 426.007812 522.863281 425.078125 522.953125 C 423.953125 527.253906 435.382812 541.277344 438.15625 545.53125 C 445.042969 556.085938 451.265625 567.085938 457.660156 577.9375 C 463.074219 587.121094 468.636719 596.730469 475.671875 604.773438 C 481.03125 610.902344 491.300781 620.863281 497.664062 626.089844 C 505.109375 632.207031 513.082031 637.886719 520.257812 644.300781 C 528.03125 651.246094 535.144531 658.5625 541.558594 666.796875 C 544.621094 670.726562 547.382812 674.886719 550.382812 678.863281 C 552.984375 682.3125 556.160156 685.308594 558.710938 688.792969 C 560.640625 691.4375 561.898438 694.25 563.339844 697.164062 C 563.042969 697.929688 562.75 698.707031 562.339844 699.417969 C 561.378906 701.09375 559.816406 702.394531 557.898438 702.800781 C 547.09375 705.089844 528.441406 676.480469 522.429688 669.082031 C 518.082031 663.730469 513.226562 657.992188 507.539062 654.058594 C 507.558594 654.421875 507.582031 654.785156 507.605469 655.152344 C 508.117188 663.652344 510.765625 673.648438 513.734375 681.617188 C 515.027344 685.082031 517.046875 688.425781 517.789062 692.070312 C 518.292969 694.546875 518.40625 697.910156 516.902344 700.097656 C 516.097656 701.269531 514.898438 701.851562 513.519531 702.058594 C 510.5 702.503906 507.945312 701.5625 505.808594 699.4375 C 495.863281 689.546875 493.980469 660.730469 488.167969 646.996094 C 484.097656 637.382812 478.023438 629.75 469.527344 623.796875 C 471.914062 632.777344 473.15625 642.113281 475.707031 651.054688 C 476.503906 653.832031 477.414062 656.644531 478.484375 659.328125 C 479.445312 661.742188 480.664062 664.15625 481.28125 666.691406 C 481.71875 668.476562 481.886719 670.351562 481.464844 672.15625 C 481.097656 673.742188 480.253906 675.3125 478.777344 676.109375 C 475.996094 677.617188 472.457031 676.417969 469.65625 675.539062 C 463.050781 667.488281 458.480469 650.375 456.5625 639.917969 C 455.621094 634.789062 455.160156 629.550781 454.375 624.394531 C 453.898438 621.265625 453.171875 618.1875 452.636719 615.070312 C 452.089844 611.902344 451.785156 608.695312 451.234375 605.527344 C 448.941406 592.316406 435.675781 570.632812 424.703125 562.984375 C 425.386719 566.609375 425.738281 570.519531 426.804688 574.035156 C 429.171875 581.851562 432.832031 589.363281 435.039062 597.246094 C 435.644531 599.417969 436.59375 603.382812 435.265625 605.351562 C 434.148438 607.003906 432.144531 607.316406 430.339844 607.773438 C 430.257812 607.738281 430.179688 607.707031 430.097656 607.671875 L 429.703125 607.496094 C 429.429688 607.375 429.152344 607.257812 428.882812 607.125 C 423.878906 604.726562 420.355469 599.113281 417.722656 594.464844 C 411.324219 583.164062 407.285156 571.546875 404.78125 558.8125 C 403.332031 551.449219 402.359375 543.875 399.800781 536.777344 C 395.433594 524.667969 382.109375 506.128906 370.285156 500.664062 C 373.074219 513.144531 385.777344 528.011719 387.371094 538.667969 C 387.734375 541.101562 386.902344 543.550781 385.34375 545.433594 C 384.167969 546.855469 382.523438 547.605469 380.691406 547.703125 C 377.558594 547.867188 374.710938 546.246094 372.410156 544.265625 C 353.769531 528.207031 322.804688 479.945312 320.984375 455.785156 C 319.824219 440.335938 323.8125 426.019531 334.0625 414.15625 C 340.675781 406.492188 349.121094 399.664062 359.554688 398.917969 Z M 359.554688 398.917969 " fill-opacity="1" fill-rule="nonzero"/><path fill="#535c49" d="M 470.945312 313 C 476.90625 312.578125 482.503906 315.09375 487.429688 318.285156 C 492.871094 321.808594 499.878906 329.269531 501.1875 335.804688 C 507.894531 369.292969 446.46875 381.257812 430.949219 404.0625 C 426.523438 410.566406 424.6875 420.167969 426.277344 427.867188 C 426.90625 430.917969 428.351562 433.921875 429.769531 436.675781 C 437.371094 451.457031 453.777344 462.007812 468.191406 469.421875 C 473.382812 472.09375 478.789062 474.363281 483.984375 477.054688 C 489.957031 480.179688 495.753906 483.628906 501.347656 487.382812 C 508.25 492.078125 524.972656 507.714844 529.382812 514.109375 C 530.160156 515.234375 530.699219 516.457031 530.921875 517.808594 C 531.304688 520.136719 530.671875 522.71875 529.199219 524.574219 C 528.28125 525.730469 527.019531 526.554688 525.53125 526.699219 C 520.25 527.21875 512.285156 518.644531 508.488281 515.292969 C 504.628906 511.886719 500.804688 508.40625 496.890625 505.054688 C 487.753906 498.121094 474.632812 489.234375 463.257812 487.238281 C 469.152344 492.183594 481.933594 500.953125 483.574219 508.589844 C 483.832031 509.789062 483.667969 510.972656 482.957031 511.988281 C 482.128906 513.167969 480.914062 513.960938 479.488281 514.179688 C 474.945312 514.886719 468.574219 510.863281 465.019531 508.363281 C 447.359375 495.960938 430.300781 482.21875 415.199219 466.796875 C 412.171875 463.707031 408.953125 460.660156 406.195312 457.324219 C 398.410156 447.910156 391.3125 436.953125 389.207031 424.753906 C 385.25 401.820312 408.398438 385.886719 425.511719 375.683594 C 429.90625 373.0625 434.546875 370.789062 438.863281 368.058594 C 448.496094 361.96875 459.578125 354.363281 466.148438 344.964844 C 471.082031 337.90625 471.257812 334.035156 468.222656 326.105469 C 467.476562 324.160156 466.667969 322.246094 466.339844 320.171875 C 466.042969 318.332031 466.066406 316.125 467.277344 314.582031 C 468.234375 313.363281 469.511719 313.222656 470.945312 313 Z M 470.945312 313 " fill-opacity="1" fill-rule="nonzero"/><path fill="#535c49" d="M 238.945312 418.742188 C 239.0625 418.75 239.175781 418.757812 239.292969 418.773438 C 241.304688 419.007812 243.832031 419.472656 245.140625 421.195312 C 245.945312 422.25 245.917969 423.371094 245.699219 424.609375 C 244.570312 431.011719 240.203125 437.347656 237.132812 442.992188 C 234.300781 448.199219 231.320312 453.742188 229.082031 459.226562 C 225.015625 469.1875 222.535156 481.378906 219.488281 491.792969 C 217.28125 499.339844 214.269531 506.519531 211.449219 513.839844 C 208.832031 520.632812 206.367188 529.945312 199.976562 534.316406 C 198.5625 535.285156 196.886719 535.835938 195.171875 535.46875 C 193.410156 535.09375 191.558594 533.832031 190.660156 532.257812 C 189.535156 530.289062 189.65625 527.582031 190.128906 525.441406 C 190.8125 522.347656 192.765625 519.019531 193.945312 516.03125 C 196.152344 510.445312 198.128906 504.769531 199.867188 499.019531 C 203.65625 487.425781 206.496094 475.582031 210.21875 463.988281 C 211.957031 458.578125 214.308594 453.355469 216.207031 448 C 217.242188 445.078125 217.96875 442.066406 218.828125 439.089844 C 215.574219 442.042969 211.636719 444.035156 208.554688 447.230469 C 202.269531 453.742188 203.429688 459.152344 193.996094 464.125 C 193.296875 463.777344 192.585938 463.433594 191.921875 463.023438 C 189.910156 461.789062 188.390625 459.644531 187.957031 457.324219 C 186.957031 451.976562 191.222656 444.648438 194.273438 440.480469 C 204.722656 426.199219 222.335938 421.328125 238.945312 418.742188 Z M 238.945312 418.742188 " fill-opacity="1" fill-rule="nonzero"/><path fill="#535c49" d="M 345.941406 281.296875 C 352.257812 281.085938 354.972656 282.242188 360.792969 283.039062 C 362.589844 283.28125 364.472656 283.1875 366.285156 283.230469 C 369.902344 283.316406 373.878906 284.644531 377.453125 285.328125 C 391.59375 288.042969 422.476562 294.007812 431.785156 304.28125 C 434.277344 307.035156 434.019531 310 433.894531 313.457031 C 432.066406 316.8125 429.84375 317.789062 426.367188 318.960938 C 412.433594 320.210938 375.859375 311 362.589844 304.117188 C 357.574219 301.515625 340.171875 292.292969 338.734375 287.03125 C 338.460938 286.03125 338.601562 285.121094 339.160156 284.238281 C 340.433594 282.214844 343.804688 281.769531 345.941406 281.296875 Z M 345.941406 281.296875 " fill-opacity="1" fill-rule="nonzero"/></svg>